# xmcd
#
# Track frame offsets: 
#        150
#        13715
#        29984
#        46383
#        63288
#        81122
#        102653
#        116225
#        131692
#        151091
#        167157
#        183490
#        198708
#        211945
#        228262
#        245897
#        260850
#
# Disc length: 3673 seconds
#
# Revision: 1
# Processed by: cddbd v1.5.2PL0 Copyright (c) Steve Scherf et al.
# Submitted via: ExactAudioCopy v1.0b1
#
DISCID=010e5711
DTITLE=Belle Perez - The Best Of Belle Perez
DYEAR=2005
DGENRE=Latin
TTITLE0=Que Viva La Vida (Chiquitan)
TTITLE1=Dime
TTITLE2=El Ritmo Caliente
TTITLE3=Loca De Amor
TTITLE4=Light Of My Life
TTITLE5=Sobrevivire
TTITLE6=Enamorada
TTITLE7=Bailaremos
TTITLE8=Hijo De La Luna
TTITLE9=Everything
TTITLE10=Me And You
TTITLE11=Get Up And Boogie
TTITLE12=Planet Of Love
TTITLE13=Kiss And Make Up
TTITLE14=This Crazy Feeling
TTITLE15=Honeybee
TTITLE16=Hello World
EXTD=
EXTT0=
EXTT1=
EXTT2=
EXTT3=
EXTT4=
EXTT5=
EXTT6=
EXTT7=
EXTT8=
EXTT9=
EXTT10=
EXTT11=
EXTT12=
EXTT13=
EXTT14=
EXTT15=
EXTT16=
PLAYORDER=
